<svg width="109" height="129" viewBox="0 0 109 129" fill="none" xmlns="http://www.w3.org/2000/svg">
    <path d="M8 7L81.5 48.5L8 94.5V7Z" stroke="#4695D0" stroke-opacity="0.3333" stroke-width="16" stroke-linejoin="bevel" />
    <path d="M8 34L81.5 75.5L8 121.5V34Z" stroke="#6C3E92" stroke-opacity="0.3333" stroke-width="16" stroke-linejoin="bevel" />
    <path d="M31 20L104.5 61.5L31 107.5V20Z" stroke="#F7C000" stroke-opacity="0.3333" stroke-width="16" stroke-linejoin="bevel" />
    <path d="M8 34L81.5 75.5L8 121.5V34Z" stroke="#6C3E92" stroke-opacity="0.3333" stroke-width="16" stroke-linejoin="bevel" />
    <path d="M31 20L104.5 61.5L31 107.5V20Z" stroke="#F7C000" stroke-opacity="0.3333" stroke-width="16" stroke-linejoin="bevel" />
    <path d="M8 7L81.5 48.5L8 94.5V7Z" stroke="#4695D0" stroke-opacity="0.3333" stroke-width="16" stroke-linejoin="bevel" />
    <path d="M31 20L104.5 61.5L31 107.5V20Z" stroke="#F7C000" stroke-opacity="0.3333" stroke-width="16" stroke-linejoin="bevel" />
    <path d="M8 7L81.5 48.5L8 94.5V7Z" stroke="#4695D0" stroke-opacity="0.3333" stroke-width="16" stroke-linejoin="bevel" />
    <path d="M8 34L81.5 75.5L8 121.5V34Z" stroke="#6C3E92" stroke-opacity="0.3333" stroke-width="16" stroke-linejoin="bevel" />
</svg>
