<svg width="435" height="129" viewBox="0 0 435 129" fill="none" xmlns="http://www.w3.org/2000/svg">
    <path d="M8 7L81.5 48.5L8 94.5V7Z" stroke="#4695D0" stroke-opacity="0.3333" stroke-width="16" stroke-linejoin="bevel" />
    <path d="M8 34L81.5 75.5L8 121.5V34Z" stroke="#6C3E92" stroke-opacity="0.3333" stroke-width="16" stroke-linejoin="bevel" />
    <path d="M31 20L104.5 61.5L31 107.5V20Z" stroke="#F7C000" stroke-opacity="0.3333" stroke-width="16" stroke-linejoin="bevel" />
    <path d="M8 34L81.5 75.5L8 121.5V34Z" stroke="#6C3E92" stroke-opacity="0.3333" stroke-width="16" stroke-linejoin="bevel" />
    <path d="M31 20L104.5 61.5L31 107.5V20Z" stroke="#F7C000" stroke-opacity="0.3333" stroke-width="16" stroke-linejoin="bevel" />
    <path d="M8 7L81.5 48.5L8 94.5V7Z" stroke="#4695D0" stroke-opacity="0.3333" stroke-width="16" stroke-linejoin="bevel" />
    <path d="M31 20L104.5 61.5L31 107.5V20Z" stroke="#F7C000" stroke-opacity="0.3333" stroke-width="16" stroke-linejoin="bevel" />
    <path d="M8 7L81.5 48.5L8 94.5V7Z" stroke="#4695D0" stroke-opacity="0.3333" stroke-width="16" stroke-linejoin="bevel" />
    <path d="M8 34L81.5 75.5L8 121.5V34Z" stroke="#6C3E92" stroke-opacity="0.3333" stroke-width="16" stroke-linejoin="bevel" />
    <path d="M133.585 70.795C131.041 70.795 128.745 70.2473 126.695 69.152C124.681 68.0213 123.091 66.449 121.925 64.435C120.795 62.3857 120.229 60.0183 120.229 57.333C120.229 54.683 120.795 52.3333 121.925 50.284C123.091 48.2347 124.681 46.6447 126.695 45.514C128.745 44.348 131.041 43.765 133.585 43.765C138.179 43.765 141.659 45.1607 144.026 47.952V30.833H149.379V70H144.185V66.29C142.772 67.8447 141.217 68.993 139.521 69.735C137.861 70.4417 135.882 70.795 133.585 70.795ZM134.804 66.555C136.995 66.555 138.903 65.9897 140.528 64.859C142.189 63.693 143.355 62.1383 144.026 60.195V54.471C143.426 52.5277 142.277 50.973 140.581 49.807C138.921 48.641 136.995 48.058 134.804 48.058C133.073 48.058 131.501 48.4467 130.087 49.224C128.709 50.0013 127.614 51.0967 126.801 52.51C126.024 53.9233 125.635 55.531 125.635 57.333C125.635 59.135 126.024 60.7427 126.801 62.156C127.614 63.5693 128.709 64.6647 130.087 65.442C131.501 66.184 133.073 66.555 134.804 66.555ZM159.405 39.578C158.521 39.578 157.779 39.2777 157.179 38.677C156.578 38.0763 156.278 37.3343 156.278 36.451C156.278 35.5677 156.578 34.8257 157.179 34.225C157.779 33.6243 158.521 33.324 159.405 33.324C160.323 33.324 161.083 33.6243 161.684 34.225C162.32 34.8257 162.638 35.5677 162.638 36.451C162.638 37.3343 162.32 38.0763 161.684 38.677C161.083 39.2777 160.323 39.578 159.405 39.578ZM156.702 44.56H162.161V70H156.702V44.56ZM182.831 82.19C181.099 82.19 179.403 82.0487 177.743 81.766C176.117 81.4833 174.739 81.077 173.609 80.547V76.148C176.259 77.3493 179.333 77.95 182.831 77.95C186.117 77.95 188.502 77.2257 189.986 75.777C191.505 74.3637 192.265 72.2083 192.265 69.311V66.608C189.933 69.3993 186.505 70.795 181.983 70.795C179.403 70.795 177.089 70.2297 175.04 69.099C172.99 67.9683 171.383 66.3783 170.217 64.329C169.051 62.2797 168.468 59.93 168.468 57.28C168.468 54.5947 169.033 52.245 170.164 50.231C171.33 48.1817 172.92 46.5917 174.934 45.461C176.983 44.3303 179.28 43.765 181.824 43.765C184.191 43.765 186.187 44.1183 187.813 44.825C189.473 45.4963 191.01 46.627 192.424 48.217V44.56H197.618V68.728C197.618 73.074 196.399 76.3953 193.961 78.692C191.558 81.024 187.848 82.19 182.831 82.19ZM183.043 66.555C185.233 66.555 187.159 65.972 188.82 64.806C190.516 63.64 191.664 62.0853 192.265 60.142V54.418C191.593 52.4393 190.427 50.8847 188.767 49.754C187.141 48.6233 185.233 48.058 183.043 48.058C181.311 48.058 179.739 48.4467 178.326 49.224C176.948 49.966 175.852 51.0437 175.04 52.457C174.262 53.8703 173.874 55.478 173.874 57.28C173.874 59.1173 174.262 60.7427 175.04 62.156C175.852 63.534 176.948 64.6117 178.326 65.389C179.739 66.1663 181.311 66.555 183.043 66.555ZM207.643 39.578C206.759 39.578 206.017 39.2777 205.417 38.677C204.816 38.0763 204.516 37.3343 204.516 36.451C204.516 35.5677 204.816 34.8257 205.417 34.225C206.017 33.6243 206.759 33.324 207.643 33.324C208.561 33.324 209.321 33.6243 209.922 34.225C210.558 34.8257 210.876 35.5677 210.876 36.451C210.876 37.3343 210.558 38.0763 209.922 38.677C209.321 39.2777 208.561 39.578 207.643 39.578ZM204.94 44.56H210.399V70H204.94V44.56ZM227.571 70.795C224.991 70.795 222.995 70.053 221.582 68.569C220.204 67.085 219.515 64.9827 219.515 62.262V48.694H215.646V44.56H219.515V36.928H224.921V44.56H231.175V48.694H224.921V61.891C224.921 63.587 225.239 64.7883 225.875 65.495C226.546 66.2017 227.747 66.555 229.479 66.555C230.503 66.555 231.528 66.3253 232.553 65.866V70.106C231.21 70.5653 229.549 70.795 227.571 70.795ZM245.929 70.795C242.855 70.795 240.381 70.0177 238.509 68.463C236.671 66.873 235.753 64.7353 235.753 62.05C235.753 59.2233 236.636 57.0503 238.403 55.531C240.205 53.9763 242.749 53.199 246.035 53.199C249.533 53.199 252.501 53.9057 254.939 55.319V53.994C254.939 51.98 254.32 50.496 253.084 49.542C251.882 48.5527 249.974 48.058 247.36 48.058C245.805 48.058 244.286 48.217 242.802 48.535C241.353 48.8177 240.046 49.224 238.88 49.754V45.408C239.94 44.9133 241.318 44.5247 243.014 44.242C244.71 43.924 246.353 43.765 247.943 43.765C252.147 43.765 255.257 44.7013 257.271 46.574C259.32 48.4113 260.345 50.973 260.345 54.259V70H255.31V67.138C254.214 68.3393 252.907 69.258 251.388 69.894C249.904 70.4947 248.084 70.795 245.929 70.795ZM247.254 66.714C248.95 66.714 250.487 66.3783 251.865 65.707C253.243 65.0357 254.267 64.0993 254.939 62.898V59.453C252.642 57.969 250.08 57.227 247.254 57.227C245.204 57.227 243.667 57.6333 242.643 58.446C241.653 59.2233 241.159 60.4247 241.159 62.05C241.159 65.1593 243.19 66.714 247.254 66.714ZM266.987 30.833H272.34V70H266.987V30.833ZM314.664 70.795C312.368 70.795 310.371 70.4417 308.675 69.735C307.015 68.993 305.478 67.8447 304.064 66.29V70H298.87V30.833H304.223V47.952C305.389 46.574 306.891 45.5317 308.728 44.825C310.566 44.1183 312.544 43.765 314.664 43.765C317.208 43.765 319.487 44.348 321.501 45.514C323.551 46.6447 325.141 48.2347 326.271 50.284C327.437 52.3333 328.02 54.683 328.02 57.333C328.02 60.0183 327.437 62.3857 326.271 64.435C325.141 66.449 323.551 68.0213 321.501 69.152C319.487 70.2473 317.208 70.795 314.664 70.795ZM313.445 66.555C315.177 66.555 316.731 66.184 318.109 65.442C319.523 64.6647 320.618 63.5693 321.395 62.156C322.208 60.7427 322.614 59.135 322.614 57.333C322.614 55.531 322.208 53.9233 321.395 52.51C320.618 51.0967 319.523 50.0013 318.109 49.224C316.731 48.4467 315.177 48.058 313.445 48.058C311.29 48.058 309.364 48.641 307.668 49.807C305.972 50.973 304.824 52.5277 304.223 54.471V60.195C304.895 62.1383 306.043 63.693 307.668 64.859C309.329 65.9897 311.255 66.555 313.445 66.555ZM333.859 44.56H339.053V49.118C340.113 47.5633 341.597 46.415 343.505 45.673C345.448 44.931 347.692 44.56 350.236 44.56V48.747C347.515 48.747 345.183 49.1887 343.24 50.072C341.296 50.9553 339.954 52.351 339.212 54.259V70H333.859V44.56ZM361.763 70.795C358.689 70.795 356.215 70.0177 354.343 68.463C352.505 66.873 351.587 64.7353 351.587 62.05C351.587 59.2233 352.47 57.0503 354.237 55.531C356.039 53.9763 358.583 53.199 361.869 53.199C365.367 53.199 368.335 53.9057 370.773 55.319V53.994C370.773 51.98 370.154 50.496 368.918 49.542C367.716 48.5527 365.808 48.058 363.194 48.058C361.639 48.058 360.12 48.217 358.636 48.535C357.187 48.8177 355.88 49.224 354.714 49.754V45.408C355.774 44.9133 357.152 44.5247 358.848 44.242C360.544 43.924 362.187 43.765 363.777 43.765C367.981 43.765 371.091 44.7013 373.105 46.574C375.154 48.4113 376.179 50.973 376.179 54.259V70H371.144V67.138C370.048 68.3393 368.741 69.258 367.222 69.894C365.738 70.4947 363.918 70.795 361.763 70.795ZM363.088 66.714C364.784 66.714 366.321 66.3783 367.699 65.707C369.077 65.0357 370.101 64.0993 370.773 62.898V59.453C368.476 57.969 365.914 57.227 363.088 57.227C361.038 57.227 359.501 57.6333 358.477 58.446C357.487 59.2233 356.993 60.4247 356.993 62.05C356.993 65.1593 359.024 66.714 363.088 66.714ZM382.821 44.56H388.015V48.217C389.217 46.6977 390.683 45.5847 392.414 44.878C394.181 44.136 396.018 43.765 397.926 43.765C401.318 43.765 403.845 44.666 405.505 46.468C407.166 48.27 407.996 50.6903 407.996 53.729V70H402.643V54.259C402.643 50.125 400.665 48.058 396.707 48.058C395.011 48.058 393.421 48.4643 391.937 49.277C390.489 50.0543 389.234 51.2557 388.174 52.881V70H382.821V44.56Z" fill="black" />
</svg>
