<svg width="421" height="126" viewBox="0 0 421 126" fill="none" xmlns="http://www.w3.org/2000/svg">
    <path d="M146.585 82.795C144.041 82.795 141.745 82.2473 139.695 81.152C137.681 80.0213 136.091 78.449 134.925 76.435C133.795 74.3857 133.229 72.0183 133.229 69.333C133.229 66.683 133.795 64.3333 134.925 62.284C136.091 60.2347 137.681 58.6447 139.695 57.514C141.745 56.348 144.041 55.765 146.585 55.765C151.179 55.765 154.659 57.1607 157.026 59.952V42.833H162.379V82H157.185V78.29C155.772 79.8447 154.217 80.993 152.521 81.735C150.861 82.4417 148.882 82.795 146.585 82.795ZM147.804 78.555C149.995 78.555 151.903 77.9897 153.528 76.859C155.189 75.693 156.355 74.1383 157.026 72.195V66.471C156.426 64.5277 155.277 62.973 153.581 61.807C151.921 60.641 149.995 60.058 147.804 60.058C146.073 60.058 144.501 60.4467 143.087 61.224C141.709 62.0013 140.614 63.0967 139.801 64.51C139.024 65.9233 138.635 67.531 138.635 69.333C138.635 71.135 139.024 72.7427 139.801 74.156C140.614 75.5693 141.709 76.6647 143.087 77.442C144.501 78.184 146.073 78.555 147.804 78.555ZM172.405 51.578C171.521 51.578 170.779 51.2777 170.179 50.677C169.578 50.0763 169.278 49.3343 169.278 48.451C169.278 47.5677 169.578 46.8257 170.179 46.225C170.779 45.6243 171.521 45.324 172.405 45.324C173.323 45.324 174.083 45.6243 174.684 46.225C175.32 46.8257 175.638 47.5677 175.638 48.451C175.638 49.3343 175.32 50.0763 174.684 50.677C174.083 51.2777 173.323 51.578 172.405 51.578ZM169.702 56.56H175.161V82H169.702V56.56ZM195.831 94.19C194.099 94.19 192.403 94.0487 190.743 93.766C189.117 93.4833 187.739 93.077 186.609 92.547V88.148C189.259 89.3493 192.333 89.95 195.831 89.95C199.117 89.95 201.502 89.2257 202.986 87.777C204.505 86.3637 205.265 84.2083 205.265 81.311V78.608C202.933 81.3993 199.505 82.795 194.983 82.795C192.403 82.795 190.089 82.2297 188.04 81.099C185.99 79.9683 184.383 78.3783 183.217 76.329C182.051 74.2797 181.468 71.93 181.468 69.28C181.468 66.5947 182.033 64.245 183.164 62.231C184.33 60.1817 185.92 58.5917 187.934 57.461C189.983 56.3303 192.28 55.765 194.824 55.765C197.191 55.765 199.187 56.1183 200.813 56.825C202.473 57.4963 204.01 58.627 205.424 60.217V56.56H210.618V80.728C210.618 85.074 209.399 88.3953 206.961 90.692C204.558 93.024 200.848 94.19 195.831 94.19ZM196.043 78.555C198.233 78.555 200.159 77.972 201.82 76.806C203.516 75.64 204.664 74.0853 205.265 72.142V66.418C204.593 64.4393 203.427 62.8847 201.767 61.754C200.141 60.6233 198.233 60.058 196.043 60.058C194.311 60.058 192.739 60.4467 191.326 61.224C189.948 61.966 188.852 63.0437 188.04 64.457C187.262 65.8703 186.874 67.478 186.874 69.28C186.874 71.1173 187.262 72.7427 188.04 74.156C188.852 75.534 189.948 76.6117 191.326 77.389C192.739 78.1663 194.311 78.555 196.043 78.555ZM220.643 51.578C219.759 51.578 219.017 51.2777 218.417 50.677C217.816 50.0763 217.516 49.3343 217.516 48.451C217.516 47.5677 217.816 46.8257 218.417 46.225C219.017 45.6243 219.759 45.324 220.643 45.324C221.561 45.324 222.321 45.6243 222.922 46.225C223.558 46.8257 223.876 47.5677 223.876 48.451C223.876 49.3343 223.558 50.0763 222.922 50.677C222.321 51.2777 221.561 51.578 220.643 51.578ZM217.94 56.56H223.399V82H217.94V56.56ZM240.571 82.795C237.991 82.795 235.995 82.053 234.582 80.569C233.204 79.085 232.515 76.9827 232.515 74.262V60.694H228.646V56.56H232.515V48.928H237.921V56.56H244.175V60.694H237.921V73.891C237.921 75.587 238.239 76.7883 238.875 77.495C239.546 78.2017 240.747 78.555 242.479 78.555C243.503 78.555 244.528 78.3253 245.553 77.866V82.106C244.21 82.5653 242.549 82.795 240.571 82.795ZM258.929 82.795C255.855 82.795 253.381 82.0177 251.509 80.463C249.671 78.873 248.753 76.7353 248.753 74.05C248.753 71.2233 249.636 69.0503 251.403 67.531C253.205 65.9763 255.749 65.199 259.035 65.199C262.533 65.199 265.501 65.9057 267.939 67.319V65.994C267.939 63.98 267.32 62.496 266.084 61.542C264.882 60.5527 262.974 60.058 260.36 60.058C258.805 60.058 257.286 60.217 255.802 60.535C254.353 60.8177 253.046 61.224 251.88 61.754V57.408C252.94 56.9133 254.318 56.5247 256.014 56.242C257.71 55.924 259.353 55.765 260.943 55.765C265.147 55.765 268.257 56.7013 270.271 58.574C272.32 60.4113 273.345 62.973 273.345 66.259V82H268.31V79.138C267.214 80.3393 265.907 81.258 264.388 81.894C262.904 82.4947 261.084 82.795 258.929 82.795ZM260.254 78.714C261.95 78.714 263.487 78.3783 264.865 77.707C266.243 77.0357 267.267 76.0993 267.939 74.898V71.453C265.642 69.969 263.08 69.227 260.254 69.227C258.204 69.227 256.667 69.6333 255.643 70.446C254.653 71.2233 254.159 72.4247 254.159 74.05C254.159 77.1593 256.19 78.714 260.254 78.714ZM279.987 42.833H285.34V82H279.987V42.833ZM327.664 82.795C325.368 82.795 323.371 82.4417 321.675 81.735C320.015 80.993 318.478 79.8447 317.064 78.29V82H311.87V42.833H317.223V59.952C318.389 58.574 319.891 57.5317 321.728 56.825C323.566 56.1183 325.544 55.765 327.664 55.765C330.208 55.765 332.487 56.348 334.501 57.514C336.551 58.6447 338.141 60.2347 339.271 62.284C340.437 64.3333 341.02 66.683 341.02 69.333C341.02 72.0183 340.437 74.3857 339.271 76.435C338.141 78.449 336.551 80.0213 334.501 81.152C332.487 82.2473 330.208 82.795 327.664 82.795ZM326.445 78.555C328.177 78.555 329.731 78.184 331.109 77.442C332.523 76.6647 333.618 75.5693 334.395 74.156C335.208 72.7427 335.614 71.135 335.614 69.333C335.614 67.531 335.208 65.9233 334.395 64.51C333.618 63.0967 332.523 62.0013 331.109 61.224C329.731 60.4467 328.177 60.058 326.445 60.058C324.29 60.058 322.364 60.641 320.668 61.807C318.972 62.973 317.824 64.5277 317.223 66.471V72.195C317.895 74.1383 319.043 75.693 320.668 76.859C322.329 77.9897 324.255 78.555 326.445 78.555ZM346.859 56.56H352.053V61.118C353.113 59.5633 354.597 58.415 356.505 57.673C358.448 56.931 360.692 56.56 363.236 56.56V60.747C360.515 60.747 358.183 61.1887 356.24 62.072C354.296 62.9553 352.954 64.351 352.212 66.259V82H346.859V56.56ZM374.763 82.795C371.689 82.795 369.215 82.0177 367.343 80.463C365.505 78.873 364.587 76.7353 364.587 74.05C364.587 71.2233 365.47 69.0503 367.237 67.531C369.039 65.9763 371.583 65.199 374.869 65.199C378.367 65.199 381.335 65.9057 383.773 67.319V65.994C383.773 63.98 383.154 62.496 381.918 61.542C380.716 60.5527 378.808 60.058 376.194 60.058C374.639 60.058 373.12 60.217 371.636 60.535C370.187 60.8177 368.88 61.224 367.714 61.754V57.408C368.774 56.9133 370.152 56.5247 371.848 56.242C373.544 55.924 375.187 55.765 376.777 55.765C380.981 55.765 384.091 56.7013 386.105 58.574C388.154 60.4113 389.179 62.973 389.179 66.259V82H384.144V79.138C383.048 80.3393 381.741 81.258 380.222 81.894C378.738 82.4947 376.918 82.795 374.763 82.795ZM376.088 78.714C377.784 78.714 379.321 78.3783 380.699 77.707C382.077 77.0357 383.101 76.0993 383.773 74.898V71.453C381.476 69.969 378.914 69.227 376.088 69.227C374.038 69.227 372.501 69.6333 371.477 70.446C370.487 71.2233 369.993 72.4247 369.993 74.05C369.993 77.1593 372.024 78.714 376.088 78.714ZM395.821 56.56H401.015V60.217C402.217 58.6977 403.683 57.5847 405.414 56.878C407.181 56.136 409.018 55.765 410.926 55.765C414.318 55.765 416.845 56.666 418.505 58.468C420.166 60.27 420.996 62.6903 420.996 65.729V82H415.643V66.259C415.643 62.125 413.665 60.058 409.707 60.058C408.011 60.058 406.421 60.4643 404.937 61.277C403.489 62.0543 402.234 63.2557 401.174 64.881V82H395.821V56.56Z" fill="black"/>
    <rect x="2.89489" y="79.1051" width="88" height="88" transform="rotate(-60 2.89489 79.1051)" fill="#E5E5E5"/>
    <rect x="0.774612" y="63" width="88" height="88" transform="rotate(-45 0.774612 63)" fill="#E8CE2D"/>
    <rect x="2.89489" y="46.8949" width="88" height="88" transform="rotate(-30 2.89489 46.8949)" fill="#E469A5"/>
    <rect x="9.11124" y="31.8873" width="88" height="88" transform="rotate(-15 9.11124 31.8873)" fill="#16A2D9"/>
    <rect x="19" y="19" width="88" height="88" fill="#AFC73B"/>
</svg>
